<mxfile host="app.diagrams.net" agent="Mozilla/5.0 (Windows NT 10.0; Win64; x64) AppleWebKit/537.36 (KHTML, like Gecko) Chrome/127.0.0.0 Safari/537.36 OPR/113.0.0.0" version="24.7.16">
  <diagram name="Página-1" id="rYgnaUHdhikNPELsnleP">
    <mxGraphModel dx="724" dy="645" grid="0" gridSize="10" guides="1" tooltips="1" connect="1" arrows="1" fold="1" page="1" pageScale="1" pageWidth="827" pageHeight="1169" math="0" shadow="0">
      <root>
        <mxCell id="0" />
        <mxCell id="1" parent="0" />
        <mxCell id="eHQkZHeoufNVQKF7edm0-1" value="Cliente" style="shape=umlActor;verticalLabelPosition=bottom;verticalAlign=top;html=1;outlineConnect=0;" parent="1" vertex="1">
          <mxGeometry x="6" y="173" width="40" height="80" as="geometry" />
        </mxCell>
        <mxCell id="eHQkZHeoufNVQKF7edm0-2" value="Funcionário" style="shape=umlActor;verticalLabelPosition=bottom;verticalAlign=top;html=1;outlineConnect=0;" parent="1" vertex="1">
          <mxGeometry x="766" y="173" width="40" height="80" as="geometry" />
        </mxCell>
        <mxCell id="eHQkZHeoufNVQKF7edm0-19" value="&lt;p style=&quot;margin:0px;margin-top:4px;text-align:center;&quot;&gt;&lt;i&gt;&lt;b&gt;Cliente&lt;/b&gt;&lt;/i&gt;&lt;/p&gt;&lt;hr size=&quot;1&quot; style=&quot;border-style:solid;&quot;&gt;&lt;p style=&quot;margin:0px;margin-left:4px;&quot;&gt;- nomeCliente: String&lt;br&gt;- cnh: String&lt;/p&gt;&lt;p style=&quot;margin:0px;margin-left:4px;&quot;&gt;- enderecoCliente: String&lt;/p&gt;&lt;p style=&quot;margin:0px;margin-left:4px;&quot;&gt;- email: String&lt;/p&gt;&lt;p style=&quot;margin:0px;margin-left:4px;&quot;&gt;- historicoLocacoes: String&lt;/p&gt;&lt;hr size=&quot;1&quot; style=&quot;border-style:solid;&quot;&gt;&lt;p style=&quot;margin:0px;margin-left:4px;&quot;&gt;+ registrarCliente(): void&lt;/p&gt;&lt;p style=&quot;margin:0px;margin-left:4px;&quot;&gt;+ removerCliente(): int&lt;br&gt;+ atualizarDados(): void&lt;/p&gt;" style="verticalAlign=top;align=left;overflow=fill;html=1;whiteSpace=wrap;" parent="1" vertex="1">
          <mxGeometry x="49" y="600" width="190" height="160" as="geometry" />
        </mxCell>
        <mxCell id="eHQkZHeoufNVQKF7edm0-20" value="&lt;p style=&quot;margin:0px;margin-top:4px;text-align:center;&quot;&gt;&lt;b&gt;Veículo&lt;/b&gt;&lt;/p&gt;&lt;hr size=&quot;1&quot; style=&quot;border-style:solid;&quot;&gt;&lt;p style=&quot;margin:0px;margin-left:4px;&quot;&gt;- marca: String&lt;/p&gt;&lt;p style=&quot;margin:0px;margin-left:4px;&quot;&gt;- modelo: String&lt;/p&gt;&lt;p style=&quot;margin:0px;margin-left:4px;&quot;&gt;- placa: String&lt;/p&gt;&lt;p style=&quot;margin:0px;margin-left:4px;&quot;&gt;- ano: int&lt;/p&gt;&lt;p style=&quot;margin:0px;margin-left:4px;&quot;&gt;- quilometragemTotal: String&lt;/p&gt;&lt;p style=&quot;margin:0px;margin-left:4px;&quot;&gt;- statusVeiculo: enum&lt;/p&gt;&lt;hr size=&quot;1&quot; style=&quot;border-style:solid;&quot;&gt;&lt;p style=&quot;margin:0px;margin-left:4px;&quot;&gt;+ getInfoCompletas(String placa): Veiculo&lt;/p&gt;&lt;p style=&quot;margin:0px;margin-left:4px;&quot;&gt;+ cadastrarVeiculo():void&lt;/p&gt;&lt;p style=&quot;margin:0px;margin-left:4px;&quot;&gt;+ removerVeiculo(): void&lt;/p&gt;&lt;p style=&quot;margin:0px;margin-left:4px;&quot;&gt;+ printInfoCompletas(String placa): String&lt;/p&gt;" style="verticalAlign=top;align=left;overflow=fill;html=1;whiteSpace=wrap;" parent="1" vertex="1">
          <mxGeometry x="19" y="871" width="250" height="193" as="geometry" />
        </mxCell>
        <mxCell id="eHQkZHeoufNVQKF7edm0-21" value="&lt;p style=&quot;margin:0px;margin-top:4px;text-align:center;&quot;&gt;&lt;b&gt;Locacao&lt;/b&gt;&lt;/p&gt;&lt;hr size=&quot;1&quot; style=&quot;border-style:solid;&quot;&gt;&lt;p style=&quot;margin:0px;margin-left:4px;&quot;&gt;&lt;span style=&quot;background-color: initial;&quot;&gt;- dataLocacao: Date&lt;/span&gt;&lt;br&gt;&lt;/p&gt;&lt;p style=&quot;margin:0px;margin-left:4px;&quot;&gt;- horaLocacao: Time&lt;/p&gt;&lt;p style=&quot;margin:0px;margin-left:4px;&quot;&gt;- dataDevolucao: Date&lt;/p&gt;&lt;p style=&quot;margin:0px;margin-left:4px;&quot;&gt;- horaDevolucao: Time&lt;/p&gt;&lt;p style=&quot;margin:0px;margin-left:4px;&quot;&gt;- isdevolvido: boolean&lt;/p&gt;&lt;p style=&quot;margin:0px;margin-left:4px;&quot;&gt;- statusLocacao: enum&lt;/p&gt;&lt;hr size=&quot;1&quot; style=&quot;border-style:solid;&quot;&gt;&lt;p style=&quot;margin:0px;margin-left:4px;&quot;&gt;+ criarReserva(): Locacao&lt;/p&gt;&lt;p style=&quot;margin:0px;margin-left:4px;&quot;&gt;+ cancelarReserva(): Locacao&lt;/p&gt;&lt;p style=&quot;margin:0px;margin-left:4px;&quot;&gt;&lt;br&gt;&lt;/p&gt;" style="verticalAlign=top;align=left;overflow=fill;html=1;whiteSpace=wrap;" parent="1" vertex="1">
          <mxGeometry x="417" y="594" width="176" height="162.5" as="geometry" />
        </mxCell>
        <mxCell id="eHQkZHeoufNVQKF7edm0-22" value="&lt;p style=&quot;margin:0px;margin-top:4px;text-align:center;&quot;&gt;&lt;b&gt;Contrato&lt;/b&gt;&lt;/p&gt;&lt;hr size=&quot;1&quot; style=&quot;border-style:solid;&quot;&gt;&lt;p style=&quot;margin:0px;margin-left:4px;&quot;&gt;- numeroContrato: int&lt;/p&gt;&lt;p style=&quot;margin:0px;margin-left:4px;&quot;&gt;- valor: double&lt;/p&gt;&lt;p style=&quot;margin:0px;margin-left:4px;&quot;&gt;- informacoesContrato: String&lt;/p&gt;&lt;hr size=&quot;1&quot; style=&quot;border-style:solid;&quot;&gt;&lt;p style=&quot;margin:0px;margin-left:4px;&quot;&gt;+ emitirContrato(): Contrato&lt;/p&gt;&lt;p style=&quot;margin:0px;margin-left:4px;&quot;&gt;+ getInfoPagamento(Double valor): Pagamento&lt;/p&gt;&lt;p style=&quot;margin: 0px 0px 0px 4px;&quot;&gt;+ getInfoCompletas(Veiculo): String&lt;/p&gt;&lt;p style=&quot;margin: 0px 0px 0px 4px;&quot;&gt;+ getInfoCliente(Cliente): String&lt;/p&gt;&lt;p style=&quot;margin: 0px 0px 0px 4px;&quot;&gt;+ finalizarContrato(): void&lt;/p&gt;" style="verticalAlign=top;align=left;overflow=fill;html=1;whiteSpace=wrap;" parent="1" vertex="1">
          <mxGeometry x="357" y="871" width="267" height="168" as="geometry" />
        </mxCell>
        <mxCell id="eHQkZHeoufNVQKF7edm0-23" value="&lt;p style=&quot;margin:0px;margin-top:4px;text-align:center;&quot;&gt;&lt;b&gt;Pagamento&lt;/b&gt;&lt;/p&gt;&lt;hr size=&quot;1&quot; style=&quot;border-style:solid;&quot;&gt;&lt;p style=&quot;margin:0px;margin-left:4px;&quot;&gt;+ valorTotal: double&lt;/p&gt;&lt;p style=&quot;margin:0px;margin-left:4px;&quot;&gt;+ metodoPagamento: String&lt;/p&gt;&lt;p style=&quot;margin:0px;margin-left:4px;&quot;&gt;+ dataVencimento: Date&lt;/p&gt;&lt;hr size=&quot;1&quot; style=&quot;border-style:solid;&quot;&gt;&lt;p style=&quot;margin:0px;margin-left:4px;&quot;&gt;+ processarPagamento(String metodoPagamento): Pagamento&lt;/p&gt;&lt;p style=&quot;margin:0px;margin-left:4px;&quot;&gt;+ validarPagamento(double valor):Pagamento&lt;/p&gt;&lt;p style=&quot;margin:0px;margin-left:4px;&quot;&gt;+ calcularValor(float valor): Contrato&lt;br&gt;&lt;/p&gt;" style="verticalAlign=top;align=left;overflow=fill;html=1;whiteSpace=wrap;" parent="1" vertex="1">
          <mxGeometry x="632" y="705" width="360" height="130" as="geometry" />
        </mxCell>
        <mxCell id="eHQkZHeoufNVQKF7edm0-24" value="Use" style="endArrow=open;endSize=12;dashed=1;html=1;rounded=0;entryX=0.428;entryY=0.997;entryDx=0;entryDy=0;exitX=0.5;exitY=0;exitDx=0;exitDy=0;entryPerimeter=0;" parent="1" source="eHQkZHeoufNVQKF7edm0-22" target="eHQkZHeoufNVQKF7edm0-21" edge="1">
          <mxGeometry width="160" relative="1" as="geometry">
            <mxPoint x="477" y="986" as="sourcePoint" />
            <mxPoint x="602" y="798.5" as="targetPoint" />
            <mxPoint as="offset" />
          </mxGeometry>
        </mxCell>
        <mxCell id="eHQkZHeoufNVQKF7edm0-25" value="Use" style="endArrow=open;endSize=12;dashed=1;html=1;rounded=0;exitX=-0.01;exitY=0.708;exitDx=0;exitDy=0;exitPerimeter=0;entryX=0.893;entryY=0.002;entryDx=0;entryDy=0;entryPerimeter=0;" parent="1" source="eHQkZHeoufNVQKF7edm0-21" target="eHQkZHeoufNVQKF7edm0-20" edge="1">
          <mxGeometry width="160" relative="1" as="geometry">
            <mxPoint x="457" y="741.4625000000001" as="sourcePoint" />
            <mxPoint x="342" y="866" as="targetPoint" />
          </mxGeometry>
        </mxCell>
        <mxCell id="eHQkZHeoufNVQKF7edm0-26" value="Use" style="endArrow=open;endSize=12;dashed=1;html=1;rounded=0;entryX=0.5;entryY=1;entryDx=0;entryDy=0;exitX=1.017;exitY=0.429;exitDx=0;exitDy=0;exitPerimeter=0;" parent="1" source="eHQkZHeoufNVQKF7edm0-22" target="eHQkZHeoufNVQKF7edm0-23" edge="1">
          <mxGeometry width="160" relative="1" as="geometry">
            <mxPoint x="737" y="1066" as="sourcePoint" />
            <mxPoint x="897" y="1066" as="targetPoint" />
          </mxGeometry>
        </mxCell>
        <mxCell id="eHQkZHeoufNVQKF7edm0-27" value="Relation" style="endArrow=open;html=1;endSize=12;startArrow=diamondThin;startSize=14;startFill=0;edgeStyle=orthogonalEdgeStyle;rounded=0;exitX=1;exitY=0.5;exitDx=0;exitDy=0;entryX=-0.01;entryY=0.56;entryDx=0;entryDy=0;entryPerimeter=0;" parent="1" source="eHQkZHeoufNVQKF7edm0-19" target="eHQkZHeoufNVQKF7edm0-21" edge="1">
          <mxGeometry relative="1" as="geometry">
            <mxPoint x="247" y="745.5" as="sourcePoint" />
            <mxPoint x="457" y="717.25" as="targetPoint" />
          </mxGeometry>
        </mxCell>
        <mxCell id="eHQkZHeoufNVQKF7edm0-28" value="1.n" style="edgeLabel;resizable=0;html=1;align=left;verticalAlign=top;" parent="eHQkZHeoufNVQKF7edm0-27" connectable="0" vertex="1">
          <mxGeometry x="-1" relative="1" as="geometry" />
        </mxCell>
        <mxCell id="eHQkZHeoufNVQKF7edm0-29" value="1.n" style="edgeLabel;resizable=0;html=1;align=right;verticalAlign=top;" parent="eHQkZHeoufNVQKF7edm0-27" connectable="0" vertex="1">
          <mxGeometry x="1" relative="1" as="geometry" />
        </mxCell>
        <mxCell id="SL3gzFFxVWBPtPS15DnR-4" value="Gerenciar Veiculo" style="ellipse;whiteSpace=wrap;html=1;" parent="1" vertex="1">
          <mxGeometry x="539" y="103" width="130" height="60" as="geometry" />
        </mxCell>
        <mxCell id="SL3gzFFxVWBPtPS15DnR-5" value="Gerencia Cliente" style="ellipse;whiteSpace=wrap;html=1;" parent="1" vertex="1">
          <mxGeometry x="519" y="263" width="124" height="60" as="geometry" />
        </mxCell>
        <mxCell id="SL3gzFFxVWBPtPS15DnR-6" value="Devolução do Veiculo" style="ellipse;whiteSpace=wrap;html=1;" parent="1" vertex="1">
          <mxGeometry x="139" y="333" width="130" height="60" as="geometry" />
        </mxCell>
        <mxCell id="SL3gzFFxVWBPtPS15DnR-10" value="Cadastra Reserva" style="ellipse;whiteSpace=wrap;html=1;" parent="1" vertex="1">
          <mxGeometry x="159" y="103" width="130" height="60" as="geometry" />
        </mxCell>
        <mxCell id="SL3gzFFxVWBPtPS15DnR-11" value="Cancela Reserva" style="ellipse;whiteSpace=wrap;html=1;" parent="1" vertex="1">
          <mxGeometry x="164" y="183" width="120" height="60" as="geometry" />
        </mxCell>
        <mxCell id="SL3gzFFxVWBPtPS15DnR-16" value="&amp;lt;&amp;lt;Extends&amp;gt;&amp;gt;" style="endArrow=open;endSize=12;dashed=1;html=1;rounded=0;entryX=1.014;entryY=0.414;entryDx=0;entryDy=0;entryPerimeter=0;exitX=0;exitY=0.5;exitDx=0;exitDy=0;" parent="1" source="SL3gzFFxVWBPtPS15DnR-4" target="SL3gzFFxVWBPtPS15DnR-10" edge="1">
          <mxGeometry width="160" relative="1" as="geometry">
            <mxPoint x="349" y="293" as="sourcePoint" />
            <mxPoint x="509" y="293" as="targetPoint" />
          </mxGeometry>
        </mxCell>
        <mxCell id="SL3gzFFxVWBPtPS15DnR-19" value="Realiza Pagamento" style="ellipse;whiteSpace=wrap;html=1;" parent="1" vertex="1">
          <mxGeometry x="321" y="173" width="104" height="50" as="geometry" />
        </mxCell>
        <mxCell id="SL3gzFFxVWBPtPS15DnR-23" value="&amp;lt;&amp;lt;includes&amp;gt;&amp;gt;" style="endArrow=open;endSize=12;dashed=1;html=1;rounded=0;exitX=0.992;exitY=0.65;exitDx=0;exitDy=0;exitPerimeter=0;" parent="1" source="SL3gzFFxVWBPtPS15DnR-19" target="SL3gzFFxVWBPtPS15DnR-24" edge="1">
          <mxGeometry x="-0.0025" width="160" relative="1" as="geometry">
            <mxPoint x="379" y="453" as="sourcePoint" />
            <mxPoint x="519" y="453" as="targetPoint" />
            <mxPoint as="offset" />
          </mxGeometry>
        </mxCell>
        <mxCell id="SL3gzFFxVWBPtPS15DnR-24" value="Registra Movimento" style="ellipse;whiteSpace=wrap;html=1;" parent="1" vertex="1">
          <mxGeometry x="549" y="188" width="110" height="50" as="geometry" />
        </mxCell>
        <mxCell id="fPIuZat_cn1J4_-GdhOo-4" value="" style="endArrow=none;html=1;rounded=0;entryX=0.031;entryY=0.728;entryDx=0;entryDy=0;entryPerimeter=0;exitX=1;exitY=0.3333333333333333;exitDx=0;exitDy=0;exitPerimeter=0;" edge="1" parent="1" source="eHQkZHeoufNVQKF7edm0-1" target="SL3gzFFxVWBPtPS15DnR-10">
          <mxGeometry width="50" height="50" relative="1" as="geometry">
            <mxPoint x="66" y="193" as="sourcePoint" />
            <mxPoint x="160" y="163" as="targetPoint" />
          </mxGeometry>
        </mxCell>
        <mxCell id="fPIuZat_cn1J4_-GdhOo-5" value="" style="endArrow=none;html=1;rounded=0;entryX=0;entryY=0.5;entryDx=0;entryDy=0;" edge="1" parent="1" source="eHQkZHeoufNVQKF7edm0-1" target="SL3gzFFxVWBPtPS15DnR-11">
          <mxGeometry width="50" height="50" relative="1" as="geometry">
            <mxPoint x="66" y="213" as="sourcePoint" />
            <mxPoint x="149" y="183" as="targetPoint" />
          </mxGeometry>
        </mxCell>
        <mxCell id="fPIuZat_cn1J4_-GdhOo-6" value="" style="endArrow=none;html=1;rounded=0;exitX=1;exitY=1;exitDx=0;exitDy=0;entryX=0.065;entryY=0.242;entryDx=0;entryDy=0;entryPerimeter=0;" edge="1" parent="1" source="SL3gzFFxVWBPtPS15DnR-10" target="SL3gzFFxVWBPtPS15DnR-19">
          <mxGeometry width="50" height="50" relative="1" as="geometry">
            <mxPoint x="295" y="213" as="sourcePoint" />
            <mxPoint x="345" y="163" as="targetPoint" />
          </mxGeometry>
        </mxCell>
        <mxCell id="fPIuZat_cn1J4_-GdhOo-7" value="" style="endArrow=none;html=1;rounded=0;" edge="1" parent="1" source="SL3gzFFxVWBPtPS15DnR-24">
          <mxGeometry width="50" height="50" relative="1" as="geometry">
            <mxPoint x="669" y="333" as="sourcePoint" />
            <mxPoint x="756" y="213" as="targetPoint" />
          </mxGeometry>
        </mxCell>
        <mxCell id="fPIuZat_cn1J4_-GdhOo-8" value="" style="endArrow=none;html=1;rounded=0;exitX=1;exitY=0.5;exitDx=0;exitDy=0;" edge="1" parent="1" source="SL3gzFFxVWBPtPS15DnR-4">
          <mxGeometry width="50" height="50" relative="1" as="geometry">
            <mxPoint x="685" y="173" as="sourcePoint" />
            <mxPoint x="756" y="193" as="targetPoint" />
          </mxGeometry>
        </mxCell>
        <mxCell id="fPIuZat_cn1J4_-GdhOo-9" value="" style="endArrow=none;html=1;rounded=0;entryX=0.217;entryY=0.103;entryDx=0;entryDy=0;entryPerimeter=0;" edge="1" parent="1" source="eHQkZHeoufNVQKF7edm0-1" target="SL3gzFFxVWBPtPS15DnR-6">
          <mxGeometry width="50" height="50" relative="1" as="geometry">
            <mxPoint x="89" y="263" as="sourcePoint" />
            <mxPoint x="109" y="303" as="targetPoint" />
          </mxGeometry>
        </mxCell>
        <mxCell id="fPIuZat_cn1J4_-GdhOo-12" value="" style="endArrow=none;html=1;rounded=0;exitX=0.967;exitY=0.658;exitDx=0;exitDy=0;exitPerimeter=0;" edge="1" parent="1" source="SL3gzFFxVWBPtPS15DnR-6">
          <mxGeometry width="50" height="50" relative="1" as="geometry">
            <mxPoint x="389" y="433" as="sourcePoint" />
            <mxPoint x="756" y="283" as="targetPoint" />
            <Array as="points">
              <mxPoint x="649" y="373" />
            </Array>
          </mxGeometry>
        </mxCell>
        <mxCell id="fPIuZat_cn1J4_-GdhOo-13" value="" style="endArrow=none;html=1;rounded=0;exitX=0.94;exitY=0.27;exitDx=0;exitDy=0;exitPerimeter=0;" edge="1" parent="1" source="SL3gzFFxVWBPtPS15DnR-5">
          <mxGeometry width="50" height="50" relative="1" as="geometry">
            <mxPoint x="649" y="283" as="sourcePoint" />
            <mxPoint x="756" y="223" as="targetPoint" />
          </mxGeometry>
        </mxCell>
        <mxCell id="fPIuZat_cn1J4_-GdhOo-14" value="" style="endArrow=none;html=1;rounded=0;entryX=0;entryY=0.5;entryDx=0;entryDy=0;" edge="1" parent="1" source="eHQkZHeoufNVQKF7edm0-1" target="SL3gzFFxVWBPtPS15DnR-5">
          <mxGeometry width="50" height="50" relative="1" as="geometry">
            <mxPoint x="66" y="223" as="sourcePoint" />
            <mxPoint x="363" y="253" as="targetPoint" />
            <Array as="points">
              <mxPoint x="279" y="293" />
            </Array>
          </mxGeometry>
        </mxCell>
        <mxCell id="fPIuZat_cn1J4_-GdhOo-15" value="" style="endArrow=none;html=1;rounded=0;exitX=0.957;exitY=0.77;exitDx=0;exitDy=0;exitPerimeter=0;" edge="1" parent="1" source="SL3gzFFxVWBPtPS15DnR-11">
          <mxGeometry width="50" height="50" relative="1" as="geometry">
            <mxPoint x="258.99640687119296" y="473.3432034355965" as="sourcePoint" />
            <mxPoint x="756" y="243" as="targetPoint" />
            <Array as="points">
              <mxPoint x="359" y="343" />
              <mxPoint x="629" y="343" />
            </Array>
          </mxGeometry>
        </mxCell>
        <mxCell id="fPIuZat_cn1J4_-GdhOo-21" value="" style="endArrow=none;html=1;rounded=0;" edge="1" parent="1">
          <mxGeometry width="50" height="50" relative="1" as="geometry">
            <mxPoint x="66" y="413" as="sourcePoint" />
            <mxPoint x="66" y="93" as="targetPoint" />
          </mxGeometry>
        </mxCell>
        <mxCell id="fPIuZat_cn1J4_-GdhOo-22" value="" style="endArrow=none;html=1;rounded=0;" edge="1" parent="1">
          <mxGeometry width="50" height="50" relative="1" as="geometry">
            <mxPoint x="66" y="413" as="sourcePoint" />
            <mxPoint x="746" y="413" as="targetPoint" />
          </mxGeometry>
        </mxCell>
        <mxCell id="fPIuZat_cn1J4_-GdhOo-23" value="" style="endArrow=none;html=1;rounded=0;" edge="1" parent="1">
          <mxGeometry width="50" height="50" relative="1" as="geometry">
            <mxPoint x="746" y="413" as="sourcePoint" />
            <mxPoint x="746" y="93" as="targetPoint" />
          </mxGeometry>
        </mxCell>
        <mxCell id="fPIuZat_cn1J4_-GdhOo-24" value="" style="endArrow=none;html=1;rounded=0;" edge="1" parent="1">
          <mxGeometry width="50" height="50" relative="1" as="geometry">
            <mxPoint x="64.33334350585938" y="93" as="sourcePoint" />
            <mxPoint x="746" y="93" as="targetPoint" />
          </mxGeometry>
        </mxCell>
        <mxCell id="fPIuZat_cn1J4_-GdhOo-25" value="Use" style="endArrow=open;endSize=12;dashed=1;html=1;rounded=0;entryX=1;entryY=1;entryDx=0;entryDy=0;exitX=0;exitY=0;exitDx=0;exitDy=0;" edge="1" parent="1" source="eHQkZHeoufNVQKF7edm0-22" target="eHQkZHeoufNVQKF7edm0-19">
          <mxGeometry width="160" relative="1" as="geometry">
            <mxPoint x="294" y="889" as="sourcePoint" />
            <mxPoint x="295" y="774" as="targetPoint" />
            <mxPoint as="offset" />
          </mxGeometry>
        </mxCell>
        <mxCell id="fPIuZat_cn1J4_-GdhOo-26" value="Use" style="endArrow=open;endSize=12;dashed=1;html=1;rounded=0;entryX=1;entryY=0.29;entryDx=0;entryDy=0;exitX=0.004;exitY=0.343;exitDx=0;exitDy=0;exitPerimeter=0;entryPerimeter=0;" edge="1" parent="1" source="eHQkZHeoufNVQKF7edm0-22" target="eHQkZHeoufNVQKF7edm0-20">
          <mxGeometry width="160" relative="1" as="geometry">
            <mxPoint x="364" y="950" as="sourcePoint" />
            <mxPoint x="246" y="839" as="targetPoint" />
            <mxPoint as="offset" />
          </mxGeometry>
        </mxCell>
      </root>
    </mxGraphModel>
  </diagram>
</mxfile>
